<svg width="229" height="81" viewBox="0 0 229 81" fill="none" xmlns="http://www.w3.org/2000/svg">
<g clip-path="url(#clip0_569_1393)">
<path d="M52.2383 9.67778C51.9863 10.9247 53.0675 12.606 53.0675 14.3516C53.0675 17.32 52.035 17.32 52.035 20.2965C52.035 23.273 51.6774 23.2649 51.6774 26.2414C51.6774 29.2179 53.0024 29.2179 53.0024 32.1863C53.0024 35.1547 52.5147 35.1547 52.5147 38.1312C52.5147 41.1076 52.848 41.1076 52.848 44.076C52.848 47.0445 52.8886 47.0525 52.8886 50.0209C52.8886 52.2171 51.6205 54.2121 51.5229 56.0865C51.401 58.3309 51.8481 60.3822 51.6286 62.1922C51.3441 64.5332 51.7912 66.6891 51.4172 68.3704C50.8157 71.1055 50.0922 73.2373 49.58 74.436C48.824 75.2645 46.5478 75.4174 45.5398 75.16C45.1903 73.9452 44.4098 71.9824 43.9953 68.6922C43.7758 66.9465 43.8408 64.7665 43.727 62.1359C43.6376 60.2294 44.2066 58.0574 44.2066 55.5877C44.2066 52.3619 44.2879 52.3619 44.2879 49.128C44.2879 45.8941 43.0441 45.8941 43.0441 42.6683C43.0441 39.4424 44.4017 39.4263 43.1986 36.4177C40.6785 36.5866 38.8576 36.7636 38.1016 37.3508C37.2643 37.1819 36.0937 36.5464 35.5002 36.0476C35.4352 37.8898 35.11 39.6757 34.5247 41.2524C33.8988 42.9337 33.7768 44.8724 32.6306 46.1917C31.4844 47.511 29.5334 47.8409 27.9482 48.7258C26.4687 49.5463 25.0623 50.5197 23.2576 50.9299C21.6237 51.3 19.9003 51.2035 18.0224 51.2035C16.1446 51.2035 14.4699 50.753 12.7953 50.3588C10.9419 49.9244 8.85266 50.3507 7.35688 49.4819C5.7473 48.5488 4.91812 46.7307 3.78816 45.3632C2.6582 43.9956 0.918545 42.8533 0.333241 41.0996C-0.203287 39.4746 0.0812357 37.5198 0.0812357 35.6293C0.0812357 33.3929 -0.0650902 31.1405 0.666539 29.2822C1.45507 27.2872 3.27602 25.8794 4.79618 24.4233C6.31634 22.9673 7.83651 21.5273 9.90133 20.7229C11.7629 19.9989 13.8521 19.4277 16.1039 19.2749C16.1852 18.945 15.5349 19.0013 15.5349 18.752C15.5349 17.8349 16.1283 16.5397 15.2016 15.9525C15.2016 14.0379 20.7863 16.0892 20.7863 17.1672C20.7863 17.5855 20.4449 19.2105 20.0222 20.1195C21.8594 20.3126 24.1518 19.7575 25.7208 20.3287C27.436 20.9562 28.5335 22.5731 29.8667 23.6028C31.273 24.6888 32.1022 25.992 33.0127 27.4642C33.9232 28.9363 35.3539 29.4511 35.7197 31.2129C39.7112 32.0334 40.8249 34.7766 44.0847 32.3552C46.5316 30.5291 44.231 28.8559 44.231 25.8231C44.231 22.7903 43.4506 22.7903 43.4506 19.7495C43.4506 16.7087 44.3529 16.7167 44.3529 13.6759C44.3529 12.8232 42.1906 11.8176 40.646 10.6431C39.321 9.63756 38.1178 8.31826 37.1505 7.8195C36.6464 7.57012 38.4349 6.37149 38.9389 6.37149C40.7842 6.37149 43.5969 6.41172 46.1901 7.00701C49.7426 7.82755 52.3277 8.994 52.2302 9.66974L52.2383 9.67778ZM26.9158 35.388C26.9158 33.4734 25.42 31.9449 24.916 30.4406C24.2982 28.6145 24.2087 26.6517 22.9568 25.6059C21.6237 24.4957 19.7377 23.4419 17.8517 23.4419C15.9657 23.4419 14.8032 25.2358 13.5107 26.3942C12.332 27.4481 11.1288 28.518 10.5517 30.336C10.072 31.8243 10.1533 33.4895 10.1533 35.3799C10.1533 37.2704 10.4216 38.8149 10.8768 40.3032C11.4377 42.1293 11.3565 44.2771 12.4945 45.3471C13.7708 46.5457 15.86 46.787 17.681 46.787C19.5019 46.787 20.8107 45.5321 22.1602 44.4139C23.4365 43.3681 24.1844 42.1856 24.8184 40.3514C25.3468 38.831 26.9158 37.3106 26.9158 35.3799V35.388ZM67.2773 5.04415C67.1066 6.29105 68.1797 7.94017 68.1797 9.69387C68.1797 12.7427 67.1554 12.7427 67.1554 15.7996C67.1554 18.8565 66.7977 18.8485 66.7977 21.9054C66.7977 24.9623 68.1146 24.9543 68.1146 28.0112C68.1146 31.0681 67.635 31.0681 67.635 34.117C67.635 37.1658 67.9602 37.1658 67.9602 40.2227C67.9602 43.2796 68.0008 43.2796 68.0008 46.3365C68.0008 49.3934 66.7977 49.3934 66.7977 52.4503C66.7977 54.3167 67.3749 56.1025 67.3017 57.8241C67.2204 59.7065 67.8951 61.5728 67.7407 63.2541C67.5619 65.1767 67.3668 67.0028 67.131 68.6278C66.8383 70.6309 65.9523 72.3363 65.619 73.8487C65.0987 76.254 64.7329 78.1927 64.3183 79.1822C63.5623 80.0108 61.4487 80.3245 60.3594 80.0751C60.083 79.1178 60.2618 77.1309 59.9204 74.4681C59.7172 72.9155 59.6115 71.0975 59.457 68.9737C59.3351 67.3005 58.0019 65.5227 57.9287 63.5035C57.8718 61.782 57.945 59.9076 57.945 57.9367C57.945 54.912 58.5465 54.912 58.5465 51.8872C58.5465 48.8625 59.0831 48.8625 59.0831 45.8378C59.0831 42.813 59.0424 42.813 59.0424 39.7883C59.0424 36.7636 58.1482 36.7636 58.1482 33.7389C58.1482 30.7141 59.1237 30.7141 59.1237 27.6894C59.1237 24.6647 58.7091 24.6647 58.7091 21.6399C58.7091 18.6152 59.0018 18.6152 59.0018 15.5824C59.0018 12.5497 59.2701 12.5577 59.2701 9.52494C59.2701 8.47915 56.433 7.32074 54.3519 5.96927C52.4578 4.73042 50.8157 2.88823 49.8158 2.4136C49.3118 2.16422 50.9701 0.00830078 51.4741 0.00830078C52.8561 0.00830078 54.986 0.836884 57.254 1.23106C59.1725 1.56089 61.343 1.46435 63.0908 1.96311C65.9523 2.77561 67.3911 4.1673 67.2855 5.0522L67.2773 5.04415Z" fill="#2D2D2D"/>
<path d="M153.066 41.9599C153.066 42.4586 153.48 42.9252 152.724 42.9252C149.562 42.9252 149.562 41.9518 146.408 41.9518C143.254 41.9518 143.246 42.4506 140.092 42.4506C136.938 42.4506 136.929 42.4908 133.775 42.4908C130.621 42.4908 130.613 42.9655 127.451 42.9655C124.288 42.9655 124.288 42.161 121.297 43.1827C121.191 45.3868 120.728 46.7625 120.411 48.3794C119.964 50.664 119.614 51.7098 118.972 53.1176C121.85 53.8818 121.76 54.1553 124.744 54.1553C127.516 54.1553 128.946 53.4313 130.044 52.5143C131.133 52.0959 138.181 53.2544 138.019 54.4208C137.58 57.1801 136.905 57.0674 136.458 59.8267C136.011 62.586 136.507 62.6664 136.06 65.4257C135.612 68.1849 134.702 68.2171 134.889 71.0005C136.23 72.2474 138.498 74.6286 138.498 75.8755C138.498 76.3742 138.124 75.98 137.45 75.98C136.848 75.98 135.117 76.4708 132.491 76.4466C131.076 76.4305 129.41 76.7684 127.532 76.7684C124.744 76.7684 124.744 77.2511 121.947 77.2511C119.151 77.2511 119.151 76.3742 116.362 76.3742C113.574 76.3742 113.566 76.2294 110.77 76.2294C107.973 76.2294 107.859 75.6422 105.103 76.0927C104.599 77.0902 104.258 78.7715 103.331 79.6886C102.575 80.5171 100.063 81.2331 98.9741 80.8952C98.5513 79.8655 98.8359 77.6453 98.6164 75.4089C98.4701 73.9609 97.584 72.352 97.397 70.4696C97.2425 68.9331 97.584 67.2115 97.3401 65.4176C96.9092 62.047 97.4295 61.9826 96.9905 58.62C96.8198 57.6225 93.9502 55.4988 92.2675 54.8311C92.1862 54.3323 93.5031 53.1096 94.1697 53.1096C95.1127 53.1096 97.2751 52.5303 99.6081 52.7154C101.429 52.8602 103.348 53.375 104.933 53.6727C109.046 53.7933 109.241 55.2655 113.29 54.5495C112.94 53.1578 112.371 50.6962 112.143 48.3553C111.989 46.7866 111.932 45.1053 111.932 42.9333C108.794 41.9036 108.68 43.3275 105.38 43.3275C102.079 43.3275 102.071 43.3516 98.7708 43.3516C95.4704 43.3516 95.4622 43.2309 92.1618 43.2309C88.715 43.2309 86.2356 43.2068 85.2276 44.1239C83.9919 43.794 82.4311 43.2148 80.8866 42.1127C78.9599 40.7371 77.4723 39.2006 77.326 38.6456C77.2447 38.3157 77.3585 38.002 77.6918 38.0824C78.6998 38.3318 81.3906 37.7848 84.4553 37.8894C86.512 37.9618 88.8125 38.718 91.0725 38.718C94.0478 38.718 94.0396 37.5596 97.0149 37.5515C99.9902 37.5435 99.9902 38.0342 102.957 38.0261C105.925 38.0181 105.933 37.9779 108.9 37.9698C111.867 37.9618 111.875 38.0181 114.842 38.01C117.809 38.002 117.818 37.6883 120.785 37.6802C123.752 37.6722 123.76 38.0503 126.727 38.0342C129.694 38.0181 129.703 37.8411 132.678 37.8331C135.653 37.825 135.653 38.372 138.628 38.364C140.604 38.364 141.88 36.8677 143.083 36.3931C145.506 35.4358 146.831 33.9476 147.457 33.9476C147.993 33.9476 149.668 36.1437 151.212 37.825C152.57 39.3052 153.09 40.89 153.09 41.9438L153.066 41.9599ZM97.3482 19.0894C97.3482 16.9174 96.9174 14.8258 97.901 13.0882C98.8846 11.3506 100.925 10.5944 102.738 9.37969C104.331 8.31782 105.876 7.08701 108.022 6.49172C109.883 5.97687 111.908 5.61487 114.119 5.4942C114.2 5.16438 113.981 4.70584 113.981 4.45647C113.981 3.53939 113.525 2.83952 112.347 2.17183C112.347 0.257241 119.224 1.96267 119.224 2.79126C119.224 3.20957 119.183 3.73246 118.761 4.64149C120.923 4.77824 122.435 6.07341 124.256 6.60434C126.345 7.22377 128.272 7.78688 129.816 8.87289C131.556 10.0876 132.905 11.5839 133.84 13.3054C134.775 15.0269 134.58 16.9576 134.58 19.0894C134.58 20.9396 134.718 22.5727 134.003 24.1092C133.287 25.6457 132.052 26.796 130.662 27.9705C129.394 29.0404 128.182 30.3276 126.435 31.0355C124.898 31.6549 123.069 31.4538 121.207 31.7595C119.557 32.033 117.899 32.6926 116.029 32.6926C114.159 32.6926 112.338 32.8937 110.672 32.6202C108.802 32.3145 106.851 32.2824 105.299 31.6629C103.535 30.9631 102.38 29.2818 101.096 28.2119C99.6813 27.0374 98.7627 25.6376 98.0148 24.077C97.2669 22.5163 97.3645 20.9477 97.3645 19.0894H97.3482ZM105.079 18.84C105.079 20.6742 106.461 22.2026 107.258 23.5702C108.103 25.0343 108.827 26.981 110.396 27.7533C111.81 28.4532 113.818 28.413 115.671 28.413C117.525 28.413 119.387 27.9947 120.85 27.327C122.508 26.5708 123.524 25.0986 124.435 23.6506C125.345 22.2026 125.492 20.7305 125.492 18.8481C125.492 16.9657 125.605 15.2844 124.76 13.8846C123.874 12.4205 122.191 11.962 120.565 11.1897C119.118 10.4979 117.736 9.13032 115.842 9.13032C113.948 9.13032 112.282 9.83019 110.843 10.5301C109.258 11.3104 107.973 12.4768 107.103 13.949C106.282 15.3326 105.087 16.9978 105.087 18.84H105.079ZM128.369 58.1293C126.711 56.0136 125.069 58.8051 122.354 58.8051C119.639 58.8051 119.647 57.8317 116.932 57.8317C114.216 57.8317 114.216 58.3304 111.509 58.3304C108.802 58.3304 107.632 56.3676 105.916 58.4511C103.819 60.9932 106.347 61.87 106.347 65.1522C106.347 68.4343 104.413 68.8365 106.485 71.4027C108.136 73.446 108.729 71.7808 111.371 71.7808C114.013 71.7808 114.021 70.9683 116.663 70.9683C119.305 70.9683 119.313 72.0382 121.963 72.0382C124.614 72.0382 125.565 73.7356 127.264 71.7245C129.394 69.1985 126.622 68.3217 127.524 65.1522C128.556 61.5402 130.402 60.7196 128.361 58.1213L128.369 58.1293Z" fill="#2D2D2D"/>
<path d="M164.244 48.4922C163.236 48.4118 162.203 47.2856 162.203 46.288C163.975 45.202 165.593 43.8103 167.276 42.6439C168.959 41.4774 170.584 40.1984 172.194 38.9434C173.804 37.6885 175.86 36.8599 177.372 35.5165C178.884 34.173 180.591 32.8135 181.998 31.3896C183.494 29.8692 184.396 27.9144 185.664 26.394C187.046 24.7368 189.111 23.6669 190.184 22.05C191.403 20.2158 191.859 18.1323 192.623 16.3947C189.721 15.4696 189.599 16.6119 186.55 16.636C183.502 16.6602 183.502 16.9739 180.461 16.99C177.015 16.99 174.551 16.99 173.543 17.9071C172.3 17.5692 170.706 16.9498 169.154 15.8316C167.235 14.4479 165.422 12.9678 165.284 12.3725C165.203 12.0426 165.682 11.6324 166.016 11.7209C167.024 11.9702 169.715 10.9888 172.771 11.1095C174.828 11.1899 177.096 11.1738 179.356 11.1417C182.364 11.1014 182.355 10.9566 185.363 10.9164C188.371 10.8762 188.371 10.8842 191.379 10.8521C194.151 10.8521 195.183 10.6027 196.273 9.6856C196.793 9.48449 199.451 10.5383 201.622 11.1014C203.987 11.7128 206.572 12.5736 206.304 13.2252C205.556 14.9145 204.662 16.6119 203.703 18.2449C202.744 19.878 201.215 21.0846 200.093 22.6131C198.972 24.1416 197.516 25.2839 196.265 26.7077C195.013 28.1316 194.387 30.0543 193.037 31.3736C191.688 32.6929 190.598 34.3259 189.16 35.5326C187.721 36.7392 185.753 37.3426 184.233 38.4447C182.713 39.5468 181.347 40.9304 179.762 41.9199C178.177 42.9094 176.502 43.9069 174.86 44.7837C173.218 45.6606 171.072 45.6847 169.373 46.4168C167.674 47.1488 165.975 47.9211 164.235 48.5003L164.244 48.4922ZM228.993 76.3905C228.993 76.8088 229.115 77.2996 228.44 77.2996C225.367 77.2996 225.367 77.5731 222.294 77.5731C219.221 77.5731 219.221 77.6374 216.149 77.6374C213.076 77.6374 213.076 76.9617 210.003 76.9617C206.93 76.9617 206.93 76.7847 203.857 76.7847C200.784 76.7847 200.784 77.4283 197.703 77.4283C194.622 77.4283 194.631 76.4308 191.55 76.4308C188.656 76.4308 186.558 76.6801 185.16 75.7631C183.429 74.6288 182.469 72.7062 182.38 69.9952C182.29 66.8337 181.973 66.8417 181.9 63.6802C181.9 62.6827 180.185 61.0497 178.502 60.4705C178.421 59.9717 179.616 58.7087 180.453 58.7087C181.421 58.7087 183.762 58.6363 186.136 58.8535C188.29 59.0547 190.428 60.1246 191.672 60.567C194.444 60.744 194.492 59.3603 197.273 59.3603C200.053 59.3603 200.053 59.3121 202.841 59.3121C205.629 59.3121 205.629 59.1753 208.41 59.1753C211.19 59.1753 211.686 61.6611 213.393 59.481C215.661 56.593 216.043 55.8369 213.62 53.0776C211.45 50.6079 210.848 52.4984 207.548 52.4984C204.247 52.4984 204.239 52.9489 200.939 52.9489C197.638 52.9489 197.63 52.9489 194.33 52.9489C190.883 52.9489 188.46 53.2787 187.371 54.1958C186.136 53.8579 184.892 52.5627 183.355 51.4526C181.445 50.077 179.201 49.1599 179.022 48.6129C178.941 48.2831 179.884 46.5776 180.217 46.6581C181.177 46.9075 183.51 47.8004 186.583 47.913C188.623 47.9854 190.916 47.6556 193.159 47.6556C196.045 47.6556 196.045 47.6234 198.931 47.6234C201.817 47.6234 201.817 48.5244 204.703 48.5244C207.589 48.5244 207.589 48.6933 210.474 48.6933C213.36 48.6933 214.637 47.2212 215.645 46.1432C216.205 46.103 218.222 47.2292 220.181 47.6154C222.343 48.0498 224.318 47.8969 224.188 48.5083C223.579 51.2515 223.619 51.2595 223.01 54.0027C222.4 56.7459 221.985 56.7137 222.246 59.5132C224.091 60.7601 225.432 63.1091 225.432 63.6963C225.432 64.1951 224.684 64.4686 224.18 64.4686C221.481 64.4686 221.481 65.2489 218.774 65.2489C216.067 65.2489 216.075 64.2273 213.368 64.2273C210.661 64.2273 210.67 64.5249 207.962 64.5249C205.255 64.5249 205.255 64.5249 202.557 64.5249C199.858 64.5249 199.85 63.8813 197.142 63.8813C194.435 63.8813 193.793 62.7953 191.623 64.3962C190.005 65.5868 191.289 66.536 191.289 68.5311C191.289 71.6926 192.655 72.4005 197.029 72.4005C199.898 72.4005 199.898 73.0601 202.768 73.0601C205.638 73.0601 205.638 72.5533 208.515 72.5533C211.393 72.5533 211.385 72.2235 214.263 72.2235C216.246 72.2235 217.522 71.4432 218.726 70.9525C221.14 69.963 222.473 69.2712 223.083 69.2712C223.619 69.2712 225.18 70.7353 226.725 72.4165C228.074 73.8806 229.009 75.3447 229.009 76.4308L228.993 76.3905ZM209.369 0.997548C210.759 0.997548 212.954 0.547057 215.254 0.941237C217.189 1.27106 219.327 1.45608 221.099 1.95484C223.993 2.76734 226.619 4.30383 226.513 5.18873C226.343 6.43563 225.497 7.93995 225.497 9.6856C225.497 12.5816 225.318 12.5816 225.318 15.4776C225.318 18.3737 225.969 18.3737 225.969 21.2697C225.969 24.1657 224.961 24.1657 224.961 27.0617C224.961 29.1372 225.522 31.0598 225.286 32.7974C225.001 34.9292 224.757 36.876 224.294 38.4849C223.595 40.8821 223.034 42.9254 222.465 44.0839C221.709 44.9124 219.79 44.7274 218.782 44.478C218.425 43.2472 217.571 41.936 217.116 38.9676C216.88 37.415 216.498 35.4923 216.368 33.0388C216.279 31.3172 217.01 29.3383 217.01 27.0617C217.01 24.1416 215.783 24.1416 215.783 21.2134C215.783 18.2852 215.734 18.2852 215.734 15.365C215.734 12.4449 215.596 12.4368 215.596 9.51667C215.596 8.47088 214.108 7.5699 212.051 6.21038C210.174 4.97153 208.231 3.88552 207.223 3.4109C206.719 3.16152 208.881 0.989504 209.385 0.989504L209.369 0.997548Z" fill="#2D2D2D"/>
</g>
<defs>
<clipPath id="clip0_569_1393">
<rect width="229" height="81" fill="white"/>
</clipPath>
</defs>
</svg>
